<?xml version="1.0" encoding="utf-8"?>
<!-- Generator: Adobe Illustrator 25.1.0, SVG Export Plug-In . SVG Version: 6.00 Build 0)  -->
<svg version="1.1" id="Layer_1" xmlns="http://www.w3.org/2000/svg" xmlns:xlink="http://www.w3.org/1999/xlink" x="0px" y="0px"
	 viewBox="0 0 100 100" style="enable-background:new 0 0 100 100;" xml:space="preserve">
<style type="text/css">
	.st0{fill:#545758;}
	.st1{fill:#FAC312;}
</style>
<g>
	<g>
		<path class="st0" d="M40.2,61.5c-1.7,0.8-3.6,1.2-5.6,1.2s-3.9-0.4-5.6-1.2v2.1l5.6,6.8l5.6-6.8V61.5z"/>
		<path class="st0" d="M32.5,75.1l1.5,3h1.1l1.5-3l-2.1-1L32.5,75.1z"/>
		<path class="st1" d="M23.8,65.5l3.1,9.3l5.4-2.7l-5.5-6.6H23.8z"/>
		<path class="st1" d="M45.2,65.5h-3L36.7,72l5.4,2.7L45.2,65.5z"/>
		<path class="st0" d="M48.6,48.6c1.6,0,2.8-1.3,2.8-2.8c0-1.6-1.3-2.8-2.8-2.8V48.6z"/>
		<path class="st1" d="M21.9,38.7h8.4c2.2,0,4.3-1.1,5.6-2.8l1.7-2.3c0.5-0.7,1.7-0.7,2.3,0l1.7,2.3c1.3,1.8,3.4,2.8,5.6,2.8
			c0.8,0,1.4,0.6,1.4,1.4c0.5,0,1,0.1,1.4,0.2v-3c0-8.5-6.9-15.5-15.5-15.5s-15.5,6.9-15.5,15.5v3c0.5-0.1,0.9-0.2,1.4-0.2
			C20.5,39.4,21.1,38.7,21.9,38.7z"/>
		<path class="st0" d="M50,65.5h-1.8l-3.9,11.7c-0.1,0.4-0.4,0.7-0.8,0.9c-0.2,0.1-0.4,0.1-0.5,0.1c-0.2,0-0.4,0-0.6-0.1l-3.2-1.6
			l-1.7,3.4l2.5,12.5h12.9v-8.4h2.8v8.4h5.6V76.7C61.3,70.5,56.2,65.5,50,65.5z"/>
		<path class="st0" d="M45.8,41.5c-2.6-0.4-4.9-1.7-6.5-3.8l-0.6-0.7l-0.6,0.8c-1.8,2.5-4.8,3.9-7.9,3.9h-7v7
			c0,6.2,5,11.3,11.3,11.3s11.3-5,11.3-11.3V41.5z"/>
		<path class="st0" d="M26.7,78c-0.2,0.1-0.4,0.1-0.6,0.1c-0.2,0-0.4,0-0.5-0.1c-0.4-0.2-0.7-0.5-0.8-0.9l-3.9-11.7h-1.8
			c-6.2,0-11.3,5-11.3,11.3v15.5h5.6v-8.4h2.8v8.4h12.9l2.5-12.5L30,76.4L26.7,78z"/>
		<path class="st0" d="M34.3,80.9L32,92.2h5l-2.3-11.3H34.3z"/>
		<path class="st0" d="M20.5,48.6V43c-1.6,0-2.8,1.3-2.8,2.8C17.6,47.3,18.9,48.6,20.5,48.6z"/>
		<path class="st1" d="M88,40.2V20.5h-5.6v19.7h-5.6V28.9h-5.6v11.3h-5.6v-7h-5.6v7h-4.2V43h36.6v-2.8H88z"/>
		<path class="st0" d="M68.9,16.2h7.9c0.4,0,0.7-0.1,1-0.4l3.2-3.2v3.6h2.8v-7c0-0.8-0.6-1.4-1.4-1.4h-7v2.8H79l-2.8,2.8h-7.9
			c-0.4,0-0.7,0.1-1,0.4l-8.4,8.4l2,2L68.9,16.2z"/>
		<path class="st0" d="M65.9,46.2L49.4,62.7H50c1,0,2.1,0.1,3.1,0.3l14.4-14.4h24.7v-2.8H66.9C66.5,45.8,66.1,45.9,65.9,46.2z"/>
	</g>
</g>
</svg>
