<?xml version="1.0" encoding="utf-8"?>
<!-- Generator: Adobe Illustrator 25.1.0, SVG Export Plug-In . SVG Version: 6.00 Build 0)  -->
<svg version="1.1" id="Layer_1" xmlns="http://www.w3.org/2000/svg" xmlns:xlink="http://www.w3.org/1999/xlink" x="0px" y="0px"
	 viewBox="0 0 100 100" style="enable-background:new 0 0 100 100;" xml:space="preserve">
<style type="text/css">
	.st0{fill:#545758;}
	.st1{fill:#FAC312;}
</style>
<g>
	<path class="st0" d="M19.1,49.1c0.7,0.7,1.6,0.8,2.5,0.5c0.9-0.4,1.4-1.2,1.4-2.1V43h11.5c5,0,9.1,4.1,9.1,9.1v27.5
		c0,1.3,1,2.3,2.3,2.3h4.6c1.3,0,2.3-1,2.3-2.3V52.1c0-10-8.2-18.2-18.2-18.2H23v-4.6c0-0.9-0.6-1.8-1.4-2.1
		c-0.9-0.4-1.8-0.2-2.5,0.5L10,36.8c-0.9,0.9-0.9,2.3,0,3.2L19.1,49.1z"/>
	<path class="st1" d="M48.2,34c1.4-1.1,2.9-2,4.6-2.7V17.7h4.6c0.9,0,1.8-0.6,2.1-1.4c0.4-0.9,0.2-1.8-0.5-2.5l-9.1-9.1
		c-0.4-0.4-1-0.7-1.6-0.7c-0.6,0-1.2,0.2-1.6,0.7l-9.1,9.1c-0.7,0.7-0.8,1.6-0.5,2.5c0.4,0.9,1.2,1.4,2.1,1.4h4.6v13.5
		C45.3,31.9,46.8,32.9,48.2,34z"/>
	<path class="st0" d="M77.3,27.7c-0.7-0.6-1.6-0.8-2.5-0.5c-0.9,0.4-1.4,1.2-1.4,2.1v4.6H61.9c-3.8,0-7.4,1.2-10.3,3.2
		c2,2.3,3.6,5,4.6,8c1.6-1.3,3.6-2.1,5.8-2.1h11.5v4.6c0,0.9,0.6,1.8,1.4,2.1c0.9,0.4,1.8,0.2,2.5-0.5l9.1-9.1
		c0.9-0.9,0.9-2.3,0-3.2L77.3,27.7z"/>
</g>
</svg>
