<?xml version="1.0" encoding="utf-8"?>
<!-- Generator: Adobe Illustrator 25.1.0, SVG Export Plug-In . SVG Version: 6.00 Build 0)  -->
<svg version="1.1" id="Layer_1" xmlns="http://www.w3.org/2000/svg" xmlns:xlink="http://www.w3.org/1999/xlink" x="0px" y="0px"
	 viewBox="0 0 100 100" style="enable-background:new 0 0 100 100;" xml:space="preserve">
<style type="text/css">
	.st0{fill:#545758;}
	.st1{fill:#FFE177;}
	.st2{fill:#FFD15B;}
	.st3{fill:#F7BA4D;}
	.st4{fill:#FFAB15;}
	.st5{fill:#FAC312;}
	.st6{fill:#5D6980;}
</style>
<g>
	<g>
		<path class="st0" d="M31.7,49.9L24,29.2v-3.9c1.5-0.5,2.6-2,2.6-3.7V19c0-0.7-0.6-1.3-1.3-1.3h-5.2c-0.7,0-1.3,0.6-1.3,1.3v2.6
			c0,1.7,1.1,3.1,2.6,3.7v3.9l-7.7,20.7c-0.2,0.7,0.1,1.4,0.7,1.6c0.7,0.2,1.4-0.1,1.6-0.7L22.7,33l6.6,17.7
			c0.2,0.5,0.7,0.8,1.2,0.8c0.1,0,0.3,0,0.4-0.1C31.7,51.2,32,50.5,31.7,49.9L31.7,49.9z M21.4,20.3h2.7v1.3c0,0.7-0.6,1.3-1.3,1.3
			c-0.7,0-1.3-0.6-1.3-1.3L21.4,20.3L21.4,20.3z"/>
		<path class="st0" d="M83.9,49.9l-7.7-20.7v-3.9c1.5-0.5,2.6-2,2.6-3.7V19c0-0.7-0.6-1.3-1.3-1.3h-5.2c-0.7,0-1.3,0.6-1.3,1.3v2.6
			c0,1.7,1.1,3.1,2.6,3.7v3.9l-7.7,20.7c-0.2,0.7,0.1,1.4,0.7,1.6c0.1,0.1,0.3,0.1,0.4,0.1c0.5,0,1-0.3,1.2-0.8L74.9,33l6.6,17.7
			c0.2,0.7,1,1,1.6,0.7C83.8,51.2,84.2,50.5,83.9,49.9L83.9,49.9z M73.6,20.3h2.7v1.3c0,0.7-0.6,1.3-1.3,1.3c-0.7,0-1.3-0.6-1.3-1.3
			L73.6,20.3L73.6,20.3z"/>
		<path class="st1" d="M82.7,53.1v4.5c0,3.7-2.7,6.9-6.3,7.5c-0.4,0.1-0.9,0.1-1.3,0.1h-0.5c-4.2,0-7.6-3.4-7.6-7.6v-4.5H82.7z"/>
		<path class="st2" d="M76.4,65c-0.4,0.1-0.9,0.1-1.3,0.1h-0.5c-4.2,0-7.6-3.4-7.6-7.6v-4.5h3.4v4.2C70.4,60.9,73.1,64.1,76.4,65z"
			/>
		<path class="st3" d="M82.7,54.7H67.1c-1.4,0-2.6-1.2-2.6-2.6c0-1.4,1.2-2.6,2.6-2.6h15.7c1.4,0,2.6,1.2,2.6,2.6
			S84.2,54.7,82.7,54.7z"/>
		<path class="st4" d="M70.4,54.7h-3.4c-1.4,0-2.6-1.2-2.6-2.6c0-0.7,0.3-1.4,0.8-1.8c0.5-0.5,1.1-0.8,1.8-0.8h3.4
			c-0.7,0-1.4,0.3-1.8,0.8c-0.5,0.5-0.8,1.1-0.8,1.8C67.8,53.5,69,54.7,70.4,54.7z"/>
		<path class="st1" d="M30.6,53.1v4.5c0,3.8-2.7,6.9-6.3,7.5c-0.4,0.1-0.8,0.1-1.3,0.1h-0.5c-4.2,0-7.6-3.4-7.6-7.6v-4.5L30.6,53.1z
			"/>
		<path class="st2" d="M24.3,65c-0.4,0.1-0.8,0.1-1.3,0.1h-0.5c-4.2,0-7.6-3.4-7.6-7.6v-4.5l0,0h3.4v4.2
			C18.3,60.9,20.9,64.1,24.3,65L24.3,65z"/>
		<path class="st3" d="M30.6,54.7H14.9c-1.4,0-2.6-1.2-2.6-2.6c0-1.4,1.2-2.6,2.6-2.6h15.7c1.4,0,2.6,1.2,2.6,2.6S32,54.7,30.6,54.7
			z"/>
		<path class="st4" d="M18.3,54.7h-3.4c-1.4,0-2.6-1.2-2.6-2.6c0-0.7,0.3-1.4,0.8-1.8c0.5-0.5,1.1-0.8,1.8-0.8h3.4
			c-0.7,0-1.4,0.3-1.8,0.8c-0.5,0.5-0.8,1.1-0.8,1.8C15.7,53.5,16.8,54.7,18.3,54.7z"/>
		<g>
			<g>
				<path class="st0" d="M85.4,18c0,1.5-1.2,2.6-2.6,2.6H66.9c-0.9,5.5-4.7,10-9.7,12c-1.8,0.7-3.7,1.1-5.7,1.1h-5.2
					c-2,0-4-0.4-5.7-1.1c-5-2-8.8-6.5-9.7-12H14.9c-1.5,0-2.6-1.2-2.6-2.6c0-1.5,1.2-2.6,2.6-2.6h18.3c1.5,0,2.6,1.2,2.6,2.6
					c0,4,2.2,7.4,5.5,9.2c1.5,0.8,3.1,1.2,4.9,1.2h5.2c1.8,0,3.5-0.4,4.9-1.2c3.3-1.8,5.5-5.2,5.5-9.2c0-1.5,1.2-2.6,2.6-2.6h18.3
					C84.2,15.4,85.4,16.6,85.4,18z"/>
			</g>
		</g>
		<path class="st0" d="M51.4,7.5v66.9h-5.2V7.5c0-1.4,1.1-2.5,2.5-2.5h0.2C50.3,5,51.4,6.1,51.4,7.5z"/>
		<path class="st0" d="M50.1,5.3c-0.8,0.4-1.3,1.3-1.3,2.3v66.8h-2.5V7.6c0-1.4,1.2-2.6,2.6-2.6C49.3,5,49.7,5.1,50.1,5.3z"/>
		<path class="st0" d="M57.3,31.1c0,0.5,0,1-0.1,1.5c-1.8,0.7-3.7,1.1-5.7,1.1v5.4c-0.8,0.3-1.7,0.4-2.6,0.4c-0.9,0-1.8-0.1-2.6-0.4
			v-5.4c-2,0-4-0.4-5.7-1.1c-0.1-0.5-0.1-1-0.1-1.5c0-1.4,0.3-2.7,0.9-3.9c1.5,0.8,3.1,1.2,4.9,1.2V23c0.8-0.3,1.7-0.4,2.6-0.4
			c0.9,0,1.8,0.1,2.6,0.4v5.4c1.8,0,3.5-0.4,4.9-1.2C57,28.3,57.3,29.7,57.3,31.1z"/>
		<circle class="st5" cx="48.8" cy="31.1" r="5.2"/>
		<path class="st5" d="M50.5,36c-0.5,0.2-1.1,0.3-1.7,0.3c-2.9,0-5.2-2.3-5.2-5.2c0-2.9,2.3-5.2,5.2-5.2c0.6,0,1.2,0.1,1.7,0.3
			c-2.1,0.7-3.5,2.6-3.5,4.9C47,33.3,48.4,35.3,50.5,36L50.5,36z"/>
		<path class="st5" d="M54,79.6H43.6v-5.7c0-0.6,0.5-1.1,1.1-1.1h8.2c0.6,0,1.1,0.5,1.1,1.1V79.6z"/>
		<path class="st5" d="M47,72.8v6.8h-3.4v-5.7c0-0.6,0.5-1.1,1.1-1.1H47z"/>
		<path class="st0" d="M59.3,84.9H38.4v-5.7c0-0.6,0.5-1.1,1.1-1.1h18.6c0.6,0,1.1,0.5,1.1,1.1V84.9z"/>
		<path class="st6" d="M41.7,78v6.8h-3.4v-5.7c0-0.6,0.5-1.1,1.1-1.1H41.7z"/>
		<path class="st5" d="M69.7,88.4H28v-4.1c0-0.6,0.5-1.1,1.1-1.1h39.5c0.6,0,1.1,0.5,1.1,1.1V88.4z"/>
		<path class="st5" d="M31.3,83.2v5.2H28v-4.1c0-0.6,0.5-1.1,1.1-1.1H31.3z"/>
	</g>
</g>
</svg>
