<?xml version="1.0" encoding="utf-8"?>
<!-- Generator: Adobe Illustrator 25.1.0, SVG Export Plug-In . SVG Version: 6.00 Build 0)  -->
<svg version="1.1" id="Layer_1" xmlns="http://www.w3.org/2000/svg" xmlns:xlink="http://www.w3.org/1999/xlink" x="0px" y="0px"
	 viewBox="0 0 100 100" style="enable-background:new 0 0 100 100;" xml:space="preserve">
<style type="text/css">
	.st0{fill:#FAC312;}
	.st1{fill:#545758;}
</style>
<g>
	<path class="st0" d="M43.5,76.4c-2.2,0.7-4.6,0.7-6.9-0.1c-2.2-0.8-4.1-2.3-5.3-4.3c-2.3-0.1-4.6-1-6.4-2.5
		c-0.2-0.2-0.4-0.4-0.7-0.6L18.5,81c-0.4,0.9-0.3,2,0.3,2.8c0.6,0.8,1.6,1.1,2.6,0.9L33,82l5.2,10.6c0.4,0.9,1.4,1.5,2.4,1.5h0
		c1,0,1.9-0.6,2.3-1.5l6.7-14C47.4,78.5,45.3,77.8,43.5,76.4z"/>
	<path class="st0" d="M75.1,69.5C73.3,71,71,71.9,68.7,72c-1.2,2-3.1,3.5-5.3,4.3c-2.2,0.8-4.6,0.8-6.8,0.1
		c-1.8,1.4-3.9,2.1-6.1,2.2l6.7,14c0.4,0.9,1.3,1.5,2.3,1.5h0c1,0,1.9-0.6,2.4-1.5L67,82l11.6,2.6c1,0.2,2-0.1,2.6-0.9
		c0.6-0.8,0.7-1.9,0.3-2.8l-5.8-12.1C75.5,69.1,75.3,69.3,75.1,69.5z"/>
	<path class="st1" d="M82.2,38c0.9-1.2,1.3-2.8,1.1-4.2c-0.3-1.5-1.2-2.8-2.4-3.6c-1-0.6-1.5-1.9-1.1-3c0.5-1.5,0.3-3-0.5-4.4
		c-0.8-1.3-2.1-2.3-3.5-2.6c-1.2-0.2-2-1.3-2.1-2.5c-0.1-1.5-0.8-3-1.9-3.9c-1.2-1-2.7-1.4-4.2-1.2c-1.2,0.2-2.3-0.5-2.8-1.6
		c-0.6-1.4-1.7-2.5-3.2-3c-1.4-0.5-3-0.4-4.4,0.3c-1.1,0.6-2.4,0.3-3.2-0.6c-1-1.1-2.5-1.8-4-1.8s-3,0.6-4,1.8
		c-0.8,0.9-2.1,1.1-3.2,0.6c-1.3-0.7-2.9-0.8-4.4-0.3c-1.4,0.5-2.6,1.6-3.2,3c-0.5,1.1-1.6,1.8-2.8,1.6c-1.5-0.2-3,0.2-4.2,1.2
		c-1.2,1-1.9,2.4-1.9,3.9c0,1.2-0.9,2.2-2.1,2.5c-1.5,0.3-2.8,1.3-3.5,2.6c-0.8,1.3-0.9,2.9-0.5,4.4c0.4,1.1-0.1,2.4-1.1,3
		c-1.3,0.8-2.2,2.1-2.4,3.6c-0.3,1.5,0.1,3,1.1,4.3c0.7,0.9,0.7,2.3,0,3.2c-0.9,1.2-1.3,2.8-1.1,4.2c0.3,1.5,1.2,2.8,2.4,3.6
		c1,0.6,1.5,1.9,1.1,3c-0.5,1.5-0.3,3,0.5,4.4c0.8,1.3,2.1,2.3,3.5,2.6c1.2,0.2,2,1.3,2.1,2.5c0.1,1.5,0.8,3,1.9,3.9
		s2.7,1.4,4.2,1.2c1.2-0.2,2.3,0.5,2.8,1.6c0.6,1.4,1.7,2.5,3.2,3c1.4,0.5,3,0.4,4.4-0.3c0.4-0.2,0.8-0.3,1.2-0.3
		c0.7,0,1.4,0.3,1.9,0.9c1,1.1,2.5,1.8,4,1.8c1.5,0,3-0.6,4-1.8c0.8-0.9,2.1-1.1,3.2-0.6c1.3,0.7,2.9,0.8,4.4,0.3
		c1.4-0.5,2.6-1.6,3.1-3c0.5-1.1,1.6-1.8,2.8-1.6c1.5,0.2,3-0.2,4.2-1.2c1.2-1,1.9-2.4,1.9-3.9c0-1.2,0.9-2.2,2.1-2.5
		c1.5-0.3,2.8-1.3,3.5-2.6c0.8-1.3,0.9-2.9,0.5-4.4c-0.4-1.1,0.1-2.4,1.1-3c1.3-0.8,2.2-2.1,2.5-3.6c0.3-1.5-0.1-3-1.1-4.3
		C81.4,40.3,81.4,39,82.2,38z M50,62.6c-12.6,0-22.9-10.3-22.9-22.9C27.1,27,37.4,16.7,50,16.7S72.9,27,72.9,39.6
		C72.9,52.3,62.6,62.6,50,62.6z"/>
	<path class="st0" d="M50,21.9c-9.8,0-17.7,7.9-17.7,17.7c0,9.8,7.9,17.7,17.7,17.7s17.7-7.9,17.7-17.7C67.7,29.9,59.8,21.9,50,21.9
		z M38.9,36.4c1-1,2.7-1,3.7,0l5.2,5.2l9.5-9.5c1-1,2.7-1,3.7,0c1,1,1,2.7,0,3.7L49.7,47.2c-0.5,0.5-1.2,0.8-1.9,0.8
		c-0.7,0-1.4-0.3-1.9-0.8l-7.1-7.1C37.9,39.1,37.9,37.4,38.9,36.4z"/>
</g>
</svg>
